<svg width="1437" height="700" viewBox="0 0 1437 700" fill="none" xmlns="http://www.w3.org/2000/svg">
<mask id="mask0_26_109" style="mask-type:alpha" maskUnits="userSpaceOnUse" x="0" y="0" width="1437" height="700">
<rect width="1437" height="700" fill="#C4C4C4"/>
</mask>
<g mask="url(#mask0_26_109)">
<path opacity="0.4" d="M1183.96 387.344C1176.75 383.178 1171.57 383.093 1168.43 387.004C1165.21 390.915 1163.68 397.546 1163.68 406.812V456.969C1163.68 466.49 1162.84 474.396 1161.05 480.687C1159.27 487.233 1156.3 491.824 1152.23 494.544C1148.25 497.35 1142.82 498.03 1135.95 496.755C1129.24 495.564 1120.85 491.994 1110.84 486.213L1106.09 483.408V443.877L1112.11 447.363C1119.32 451.528 1124.07 452.038 1126.44 449.063C1128.99 446.087 1130.26 439.967 1130.26 430.7V386.494C1130.26 374.932 1131.36 365.836 1133.66 359.205C1135.86 352.489 1140.36 348.238 1147.06 346.368C1140.36 336.762 1135.86 327.24 1133.66 317.974C1131.45 308.708 1130.35 298.336 1130.35 286.775V242.568C1130.35 233.302 1129.07 225.651 1126.53 219.785C1124.15 214.004 1119.32 208.989 1112.19 204.823L1106.17 201.338V161.807L1110.92 164.612C1120.93 170.393 1129.33 176.599 1136.03 183.145C1142.9 189.776 1148.33 196.747 1152.32 204.228C1156.47 211.709 1159.44 219.7 1161.14 228.286C1162.92 236.618 1163.77 245.544 1163.77 255.065V305.222C1163.77 314.489 1165.38 322.99 1168.52 330.556C1171.74 338.122 1176.92 344.073 1184.04 348.153L1183.96 387.344Z" fill="url(#paint0_linear_26_109)"/>
<path opacity="0.4" d="M1002.26 242.058C1009.47 246.224 1014.64 246.309 1017.78 242.398C1021 238.488 1022.53 231.857 1022.53 222.591V172.433C1022.53 162.912 1023.38 155.006 1025.16 148.715C1026.94 142.169 1029.83 137.578 1033.81 134.773C1037.97 132.053 1043.4 131.373 1050.1 132.563C1056.97 133.838 1065.45 137.408 1075.46 143.274L1080.21 146.08V185.61L1074.19 182.125C1066.98 177.959 1062.14 177.364 1059.6 180.339C1057.22 183.4 1056.04 189.521 1056.04 198.872V243.078C1056.04 254.555 1054.93 263.736 1052.64 270.367C1050.44 277.083 1045.94 281.334 1039.24 283.204C1045.94 292.811 1050.44 302.332 1052.64 311.598C1054.85 320.865 1055.95 331.236 1055.95 342.798V387.004C1055.95 396.27 1057.14 403.836 1059.52 409.702C1062.06 415.568 1066.9 420.669 1074.11 424.749L1080.13 428.235V467.765L1075.38 464.96C1065.37 459.179 1056.89 452.888 1050.01 446.342C1043.31 439.796 1037.88 432.826 1033.73 425.259C1029.74 417.863 1026.86 409.872 1025.16 401.371C1023.38 393.04 1022.53 384.114 1022.53 374.592V324.435C1022.53 315.169 1020.92 306.668 1017.78 299.101C1014.56 291.535 1009.38 285.585 1002.26 281.504V242.058Z" fill="url(#paint1_linear_26_109)"/>
<path opacity="0.15" d="M1208.47 142.934L1387.54 246.564L1387.46 676.81L1208.39 573.266L1208.47 142.934Z" fill="url(#paint2_linear_26_109)"/>
<path d="M1174.8 199.297L1317.31 281.674V321.205L1174.8 238.828V199.297Z" fill="#587298"/>
<path opacity="0.2" d="M1231.8 382.329L1366.85 460.455V580.067L1231.8 501.941V382.329Z" fill="url(#paint3_linear_26_109)"/>
<path opacity="0.15" d="M1230.44 290.6L1367.53 369.916V383.433L1230.44 304.117V290.6Z" fill="white"/>
<path opacity="0.15" d="M1230.44 317.804L1348.95 386.324V399.841L1230.44 331.321V317.804Z" fill="white"/>
<path opacity="0.15" d="M1230.44 344.668L1331.05 402.816V416.333L1230.44 358.185V344.668Z" fill="white"/>
<path opacity="0.2" d="M1208.47 142.934L1387.54 246.564V304.202L1208.39 200.658L1208.47 142.934Z" fill="url(#paint4_linear_26_109)"/>
<path opacity="0.2" d="M1253.18 198.022C1253.18 206.778 1248.09 210.859 1241.81 207.203C1235.53 203.548 1230.44 193.602 1230.44 184.845C1230.44 176.089 1235.53 172.008 1241.81 175.664C1248.09 179.319 1253.18 189.351 1253.18 198.022Z" fill="white"/>
<path opacity="0.15" d="M885.788 274.703L1437 593.499L1436.92 1024L885.703 705.205L885.788 274.703Z" fill="url(#paint5_linear_26_109)"/>
<path d="M849.227 380.798L991.653 463.175V502.705L849.227 420.414V380.798Z" fill="#EA8C4F"/>
<path opacity="0.15" d="M922.942 489.444L1239.18 672.39V685.907L922.942 502.961V489.444Z" fill="white"/>
<path opacity="0.15" d="M922.942 516.648L1195.75 674.43V687.947L922.942 530.165V516.648Z" fill="white"/>
<path opacity="0.15" d="M922.942 543.596L1155.12 677.915V691.432L922.942 557.113V543.596Z" fill="white"/>
<path opacity="0.2" d="M871.197 557.029L1102.69 690.923V810.535L871.197 676.556V557.029Z" fill="url(#paint6_linear_26_109)"/>
<path opacity="0.15" d="M894.525 601.15L1078.43 707.5V721.017L894.525 614.667V601.15Z" fill="white"/>
<path opacity="0.15" d="M894.525 628.354L1041.79 713.536V727.053L894.525 641.785V628.354Z" fill="white"/>
<path opacity="0.2" d="M885.788 274.703L1436.24 593.159V651.477L885.788 333.106V274.703Z" fill="url(#paint7_linear_26_109)"/>
<path opacity="0.2" d="M945.761 338.547C945.761 347.304 940.672 351.384 934.394 347.729C928.117 344.073 923.027 334.127 923.027 325.37C923.027 316.614 928.117 312.534 934.394 316.189C940.672 319.845 945.761 329.876 945.761 338.547Z" fill="white"/>
</g>
<defs>
<linearGradient id="paint0_linear_26_109" x1="1232.79" y1="149.876" x2="1093.4" y2="390.987" gradientUnits="userSpaceOnUse">
<stop stop-color="#424C57"/>
<stop offset="0.903" stop-color="white" stop-opacity="0"/>
</linearGradient>
<linearGradient id="paint1_linear_26_109" x1="1152.58" y1="133.512" x2="1013.18" y2="374.593" gradientUnits="userSpaceOnUse">
<stop stop-color="#414B56"/>
<stop offset="0.903" stop-color="white" stop-opacity="0"/>
</linearGradient>
<linearGradient id="paint2_linear_26_109" x1="1390.91" y1="248.519" x2="1219.12" y2="545.497" gradientUnits="userSpaceOnUse">
<stop stop-color="white"/>
<stop offset="1" stop-color="white" stop-opacity="0"/>
</linearGradient>
<linearGradient id="paint3_linear_26_109" x1="1325.18" y1="436.285" x2="1277.44" y2="518.823" gradientUnits="userSpaceOnUse">
<stop stop-color="white"/>
<stop offset="1" stop-color="white" stop-opacity="0"/>
</linearGradient>
<linearGradient id="paint4_linear_26_109" x1="1269.87" y1="143.828" x2="1324.68" y2="298.667" gradientUnits="userSpaceOnUse">
<stop stop-color="#424C58"/>
<stop offset="1" stop-color="white" stop-opacity="0"/>
</linearGradient>
<linearGradient id="paint5_linear_26_109" x1="1254.35" y1="487.856" x2="1163.36" y2="645.198" gradientUnits="userSpaceOnUse">
<stop stop-color="white"/>
<stop offset="1" stop-color="white" stop-opacity="0"/>
</linearGradient>
<linearGradient id="paint6_linear_26_109" x1="1012.77" y1="638.882" x2="965.028" y2="721.421" gradientUnits="userSpaceOnUse">
<stop stop-color="#434D58"/>
<stop offset="1" stop-color="white" stop-opacity="0"/>
</linearGradient>
<linearGradient id="paint7_linear_26_109" x1="1022.37" y1="227.714" x2="1232.05" y2="582.136" gradientUnits="userSpaceOnUse">
<stop stop-color="#546F94"/>
<stop offset="1" stop-color="white" stop-opacity="0"/>
</linearGradient>
</defs>
</svg>
