<svg aria-hidden="true" style="width:0;height:0;position:absolute;overflow:hidden" xmlns="http://www.w3.org/2000/svg"><defs><symbol id="search" viewBox="0 0 33 32"><path fill="none" stroke="#fff" style="stroke:var(--color1,#fff)" stroke-linejoin="round" stroke-linecap="round" stroke-width="2.667" d="M14.667 25.333c5.891 0 10.667-4.776 10.667-10.667S20.558 3.999 14.667 3.999 4 8.775 4 14.666s4.776 10.667 10.667 10.667zM28 28l-5.8-5.8"/></symbol><symbol id="quote-sign" viewBox="0 0 33 32"><path d="m14.351 2.17 1.792 2.631c-.806.477-1.79 1.299-2.953 2.466-1.093 1.134-2.126 2.433-3.101 3.899s-1.681 2.995-2.119 4.59c.4.022.738.053 1.016.091.348.004.677.061.989.169 1.143.397 1.968 1.121 2.476 2.17.578 1.016.633 2.199.163 3.549-.523 1.506-1.389 2.573-2.597 3.201-1.19.576-2.46.629-3.81.16-1.973-.686-3.227-1.937-3.76-3.752s-.439-3.762.283-5.839c.505-1.454 1.308-3.009 2.407-4.664A33.065 33.065 0 0 1 9.268 5.99c1.603-1.597 3.297-2.87 5.083-3.821zm14.334 4.982 1.792 2.631c-.806.477-1.79 1.299-2.953 2.466-1.093 1.134-2.126 2.433-3.101 3.899s-1.681 2.995-2.119 4.59c.4.023.738.053 1.016.091.348.004.677.061.989.169 1.143.397 1.968 1.121 2.476 2.17.578 1.016.633 2.199.163 3.549-.523 1.506-1.389 2.573-2.597 3.201-1.19.576-2.46.629-3.81.16-1.974-.686-3.227-1.937-3.76-3.752s-.439-3.762.283-5.839c.505-1.454 1.308-3.009 2.407-4.664a33.065 33.065 0 0 1 4.131-4.851c1.603-1.597 3.297-2.87 5.083-3.821z"/></symbol><symbol id="facebook" viewBox="0 0 32 32"><path fill="#1e252b" style="fill:var(--color1,#1e252b)" d="M4.414 0h23.172A4.414 4.414 0 0 1 32 4.414v23.172A4.414 4.414 0 0 1 27.586 32H4.414A4.414 4.414 0 0 1 0 27.586V4.414A4.414 4.414 0 0 1 4.414 0z"/><path fill="#fff" style="fill:var(--color2,#fff)" opacity=".78" d="M17.092 23.032v-6.406h2.161l.321-2.508h-2.482V12.52c0-.724.202-1.219 1.24-1.219h1.316V9.065a17.242 17.242 0 0 0-1.928-.099c-1.91 0-3.222 1.166-3.222 3.307v1.841h-2.147v2.508h2.152v6.411h2.589z"/></symbol><symbol id="figma" viewBox="0 0 32 32"><path fill="#19bcfe" style="fill:var(--color3,#19bcfe)" opacity=".78" d="M21.333 21.333a5.333 5.333 0 1 0 0-10.667 5.333 5.333 0 0 0 0 10.667z"/><path fill="#09cf83" style="fill:var(--color4,#09cf83)" opacity=".78" d="M10.667 32A5.332 5.332 0 0 0 16 26.667v-5.333h-5.333a5.332 5.332 0 1 0 0 10.666z"/><path fill="#a259ff" style="fill:var(--color5,#a259ff)" opacity=".78" d="M10.667 21.333H16V10.666h-5.333a5.332 5.332 0 1 0 0 10.666z"/><path fill="#f24e1e" style="fill:var(--color6,#f24e1e)" opacity=".78" d="M10.667 10.667H16V0h-5.333a5.332 5.332 0 1 0 0 10.666z"/><path fill="#ff7262" style="fill:var(--color7,#ff7262)" opacity=".78" d="M21.333 10.667H16V0h5.333a5.334 5.334 0 0 1 0 10.666z"/></symbol><symbol id="folder-plus" viewBox="0 0 32 32"><path fill="#1e252b" style="fill:var(--color1,#1e252b)" d="M6.095 0h19.81A6.095 6.095 0 0 1 32 6.095v19.81A6.095 6.095 0 0 1 25.905 32H6.095A6.095 6.095 0 0 1 0 25.905V6.095A6.095 6.095 0 0 1 6.095 0z"/><path fill="#fff" style="fill:var(--color2,#fff)" opacity=".38" d="M17.905 17.714h-.952v-.952a.956.956 0 0 0-.952-.952.956.956 0 0 0-.952.952v.952h-.952a.956.956 0 0 0-.952.952.956.956 0 0 0 .952.952h.952v.952a.956.956 0 0 0 .952.952.956.956 0 0 0 .952-.952v-.952h.952a.956.956 0 0 0 .952-.952.956.956 0 0 0-.952-.952z"/><path fill="#fff" style="fill:var(--color2,#fff)" opacity=".38" d="M23.143 12.048h-6.667l-2.505-3.029a.956.956 0 0 0-.733-.352H8.857a2.353 2.353 0 0 0-2.38 2.314v11.562a2.354 2.354 0 0 0 2.38 2.314h14.286a2.348 2.348 0 0 0 2.381-2.314v-8.181a2.354 2.354 0 0 0-2.381-2.314zm.476 10.476a.446.446 0 0 1-.152.305.438.438 0 0 1-.325.104H8.856a.442.442 0 0 1-.432-.241.446.446 0 0 1-.045-.168V10.981a.446.446 0 0 1 .152-.305.447.447 0 0 1 .325-.104h3.933l2.476 3.029a.956.956 0 0 0 .733.352h7.143a.442.442 0 0 1 .432.241c.026.052.041.11.045.168v8.162z"/></symbol><symbol id="google" viewBox="0 0 99 32"><path fill="#fff" style="fill:var(--color2,#fff)" opacity=".2" d="m95.442 19.557 2.733 1.804c-.887 1.293-3.009 3.512-6.677 3.512-4.554 0-7.946-3.489-7.946-7.926 0-4.723 3.428-7.926 7.563-7.926 4.159 0 6.197 3.275 6.856 5.043l.36.902-10.715 4.39c.814 1.59 2.086 2.397 3.883 2.397 1.798 0 3.044-.878 3.944-2.195zm-8.402-2.86 7.155-2.943c-.396-.985-1.57-1.685-2.973-1.685-1.786 0-4.267 1.566-4.183 4.628zM78.386.939h3.452v23.209h-3.452V.939zM72.944 9.637h3.332v14.097c0 5.85-3.487 8.259-7.611 8.259-3.883 0-6.22-2.587-7.095-4.687l3.056-1.258c.551 1.293 1.882 2.824 4.039 2.824 2.649 0 4.279-1.626 4.279-4.663V23.07h-.12c-.791.949-2.302 1.803-4.219 1.803-4.003 0-7.671-3.453-7.671-7.902 0-4.474 3.668-7.962 7.671-7.962 1.906 0 3.428.842 4.219 1.768h.12V9.638zm.24 7.333c0-2.8-1.882-4.841-4.279-4.841-2.421 0-4.459 2.041-4.459 4.841 0 2.765 2.038 4.77 4.459 4.77 2.397.012 4.279-2.005 4.279-4.77zM41.985 16.911c0 4.568-3.596 7.926-8.006 7.926s-8.006-3.37-8.006-7.926c0-4.592 3.596-7.938 8.006-7.938s8.006 3.346 8.006 7.938zm-3.5 0c0-2.848-2.086-4.806-4.507-4.806s-4.507 1.958-4.507 4.806c0 2.824 2.086 4.806 4.507 4.806s4.507-1.982 4.507-4.806zM59.472 16.946c0 4.568-3.596 7.926-8.006 7.926s-8.006-3.358-8.006-7.926c0-4.592 3.596-7.926 8.006-7.926s8.006 3.322 8.006 7.926zm-3.512 0c0-2.848-2.085-4.806-4.507-4.806s-4.507 1.958-4.507 4.806c0 2.824 2.086 4.806 4.507 4.806 2.433 0 4.507-1.994 4.507-4.806zM12.812 21.396c-5.022 0-8.953-4.011-8.953-8.982s3.931-8.982 8.953-8.982c2.709 0 4.686 1.056 6.149 2.409l2.409-2.385C19.332 1.522 16.612.05 12.812.05 5.932.05.143 5.604.143 12.414s5.789 12.364 12.669 12.364c3.716 0 6.52-1.21 8.714-3.465 2.253-2.231 2.948-5.363 2.948-7.903 0-.795-.096-1.614-.204-2.219H12.812v3.299h8.162c-.24 2.065-.899 3.477-1.87 4.438-1.175 1.175-3.032 2.468-6.292 2.468z"/></symbol><symbol id="heart" viewBox="0 0 32 32"><path fill="#1e252b" style="fill:var(--color1,#1e252b)" d="M6.095 0h19.81A6.095 6.095 0 0 1 32 6.095v19.81A6.095 6.095 0 0 1 25.905 32H6.095A6.095 6.095 0 0 1 0 25.905V6.095A6.095 6.095 0 0 1 6.095 0z"/><path fill="#fff" style="fill:var(--color2,#fff)" opacity=".38" d="M20.444 9.333c-1.867 0-3.511.933-4.444 2.4-.933-1.467-2.578-2.4-4.444-2.4-2.933 0-5.333 2.4-5.333 5.333 0 5.289 9.778 10.667 9.778 10.667S25.779 20 25.779 14.666c0-2.933-2.4-5.333-5.333-5.333z"/></symbol><symbol id="hero-bg" viewBox="0 0 66 32"><path style="fill:var(--color8,#000)" opacity=".4" d="M54.124 17.707c-.33-.19-.566-.194-.71-.016-.147.179-.217.482-.217.905v2.293c0 .435-.038.797-.12 1.084-.081.299-.217.509-.403.633-.182.128-.43.159-.744.101-.307-.054-.69-.218-1.148-.482l-.217-.128V20.29l.275.159c.33.19.547.214.655.078.117-.136.175-.416.175-.839v-2.021c0-.529.05-.944.155-1.247a.851.851 0 0 1 .613-.587c-.306-.439-.512-.874-.613-1.298s-.151-.898-.151-1.426v-2.021c0-.424-.059-.773-.175-1.042-.109-.264-.33-.494-.656-.684l-.275-.159V7.396l.217.128c.458.264.842.548 1.148.847a3.9 3.9 0 0 1 1.148 2.064c.081.381.12.789.12 1.224v2.293c0 .424.074.812.217 1.158.147.346.384.618.709.804l-.004 1.792zM45.818 11.066c.33.19.566.194.709.016.147-.179.217-.482.217-.905V7.884c0-.435.039-.797.12-1.084.081-.299.214-.509.395-.637.19-.124.438-.155.745-.101.314.058.702.221 1.159.49l.217.128v1.807l-.275-.159c-.33-.19-.551-.218-.667-.082-.109.14-.163.42-.163.847v2.021c0 .525-.051.944-.155 1.248a.851.851 0 0 1-.613.587c.306.439.512.874.613 1.298s.151.898.151 1.426v2.021c0 .424.054.769.163 1.038.116.268.337.501.667.688l.275.159v1.807l-.217-.128a6.122 6.122 0 0 1-1.16-.851 4.121 4.121 0 0 1-.744-.964 3.92 3.92 0 0 1-.392-1.092 5.882 5.882 0 0 1-.12-1.224v-2.293c0-.424-.074-.812-.217-1.158a1.645 1.645 0 0 0-.709-.804v-1.803z"/><path style="fill:var(--color8,#000)" opacity=".15" d="m55.244 6.534 8.186 4.737-.004 19.668-8.186-4.733.004-19.672z"/><path fill="#587298" style="fill:var(--color9,#587298)" d="m53.705 9.111 6.515 3.766v1.807l-6.515-3.766V9.111z"/><path style="fill:var(--color8,#000)" opacity=".2" d="m56.311 17.478 6.174 3.571v5.468l-6.174-3.571v-5.468z"/><path fill="#fff" style="fill:var(--color2,#fff)" opacity=".15" d="m56.249 13.285 6.267 3.626v.618l-6.267-3.626v-.618zM56.249 14.528l5.418 3.132v.618l-5.418-3.132v-.618zM56.249 15.756l4.599 2.658v.618l-4.599-2.658v-.618z"/><path style="fill:var(--color8,#000)" opacity=".2" d="m55.244 6.534 8.186 4.737v2.635l-8.19-4.733.004-2.639z"/><path fill="#fff" style="fill:var(--color2,#fff)" opacity=".2" d="M57.288 9.052c0 .4-.233.587-.52.42s-.52-.622-.52-1.022.233-.587.52-.42.52.626.52 1.022z"/><path style="fill:var(--color8,#000)" opacity=".15" d="m40.493 12.558 25.198 14.574-.004 19.68-25.198-14.574.004-19.68z"/><path fill="#ea8c4f" style="fill:var(--color10,#ea8c4f)" d="m38.822 17.408 6.511 3.766v1.807l-6.511-3.762v-1.811z"/><path fill="#fff" style="fill:var(--color2,#fff)" opacity=".15" d="m42.192 22.375 14.457 8.363v.618l-14.457-8.363v-.618zM42.192 23.618l12.471 7.213v.618l-12.471-7.213v-.618zM42.192 24.85l10.614 6.14v.618l-10.614-6.14v-.618z"/><path style="fill:var(--color8,#000)" opacity=".2" d="m39.826 25.464 10.583 6.121v5.468l-10.583-6.125v-5.464z"/><path fill="#fff" style="fill:var(--color2,#fff)" opacity=".15" d="m40.893 27.481 8.407 4.862v.618l-8.407-4.862v-.618zM40.893 28.725l6.732 3.894v.618l-6.732-3.898v-.614z"/><path style="fill:var(--color8,#000)" opacity=".2" d="m40.493 12.558 25.164 14.558v2.666L40.493 15.228v-2.67z"/><path fill="#fff" style="fill:var(--color2,#fff)" opacity=".2" d="M43.235 15.476c0 .4-.233.587-.52.42s-.52-.622-.52-1.022.233-.587.52-.42.52.626.52 1.022z"/></symbol><symbol id="instagram" viewBox="0 0 32 32"><path fill="#1e252b" style="fill:var(--color1,#1e252b)" d="M4.414 0h23.172A4.414 4.414 0 0 1 32 4.414v23.172A4.414 4.414 0 0 1 27.586 32H4.414A4.414 4.414 0 0 1 0 27.586V4.414A4.414 4.414 0 0 1 4.414 0z"/><path fill="#fff" style="fill:var(--color2,#fff)" opacity=".78" d="M15.999 12.174a3.826 3.826 0 1 0 0 7.652 3.826 3.826 0 0 0 0-7.652zm0 6.312a2.487 2.487 0 0 1-1.758-4.244 2.487 2.487 0 0 1 3.516 3.516 2.487 2.487 0 0 1-1.758.728zM19.977 12.926a.892.892 0 1 0 0-1.783.892.892 0 0 0 0 1.783z"/><path fill="#fff" style="fill:var(--color2,#fff)" opacity=".78" d="M23.062 11.126a3.803 3.803 0 0 0-2.179-2.178 5.485 5.485 0 0 0-1.809-.348c-.797-.035-1.049-.045-3.07-.045s-2.28 0-3.07.045a5.418 5.418 0 0 0-1.807.348 3.814 3.814 0 0 0-2.179 2.178 5.459 5.459 0 0 0-.347 1.809c-.036.796-.046 1.049-.046 3.07s0 2.278.046 3.07a5.44 5.44 0 0 0 .347 1.81 3.818 3.818 0 0 0 2.18 2.178 5.442 5.442 0 0 0 1.808.372c.797.035 1.049.046 3.07.046s2.28 0 3.07-.046a5.484 5.484 0 0 0 1.809-.347 3.818 3.818 0 0 0 2.179-2.179c.218-.579.334-1.19.347-1.809.036-.796.046-1.049.046-3.07s0-2.278-.046-3.07a5.48 5.48 0 0 0-.348-1.835zm-1.008 7.889a4.167 4.167 0 0 1-.257 1.397 2.47 2.47 0 0 1-1.417 1.416 4.13 4.13 0 0 1-1.382.257c-.786.036-1.008.046-3.024.046-2.018 0-2.224 0-3.025-.046a4.12 4.12 0 0 1-1.381-.257 2.466 2.466 0 0 1-1.423-1.416 4.18 4.18 0 0 1-.257-1.381c-.036-.786-.044-1.008-.044-3.024s0-2.223.044-3.025c.005-.477.092-.949.257-1.396a2.471 2.471 0 0 1 1.423-1.417c.442-.164.91-.251 1.381-.257.787-.036 1.008-.046 3.025-.046s2.224 0 3.024.046c.472.006.94.093 1.382.257a2.47 2.47 0 0 1 1.417 1.417c.163.443.25.91.257 1.381.036.787.045 1.008.045 3.025s0 2.233-.036 3.024h-.009v-.001z"/></symbol><symbol id="invision" viewBox="0 0 33 32"><path fill="#f06" style="fill:var(--color11,#f06)" opacity=".78" d="M0 2a2 2 0 0 1 2-2h28.5a2 2 0 0 1 2 2v27.912a2 2 0 0 1-2 2H2a2 2 0 0 1-2-2V2z"/><path fill="#fff" style="fill:var(--color2,#fff)" opacity=".78" d="M11.059 10.269c1.028-.015 1.851-.842 1.841-1.852s-.849-1.821-1.877-1.816-1.859.824-1.859 1.834c.001.243.051.483.147.707s.236.427.412.598.385.305.614.396c.229.091.475.136.722.134zM7.129 20.089a6.154 6.154 0 0 0-.168 1.377c0 1.615.892 2.687 2.787 2.687 1.572 0 2.847-.916 3.764-2.397l-.56 2.208h3.12l1.785-7.021c.446-1.779 1.309-2.702 2.619-2.702 1.031 0 1.672.629 1.672 1.67.005.333-.042.666-.139.985l-.919 3.228a4.768 4.768 0 0 0-.195 1.368c0 1.532.919 2.655 2.842 2.655 1.645 0 2.955-1.039 3.679-3.529l-1.226-.466c-.614 1.67-1.143 1.971-1.56 1.971s-.642-.273-.642-.821c.012-.287.059-.572.139-.849l.893-3.146a6.824 6.824 0 0 0 .307-1.995c0-2.354-1.45-3.582-3.206-3.582-1.645 0-3.316 1.456-4.152 2.989l.612-2.752h-4.765l-.669 2.425h2.231l-1.373 5.392c-1.079 2.354-3.06 2.392-3.309 2.337-.408-.091-.668-.243-.668-.766.012-.424.077-.844.195-1.252l2.09-8.143H7.019l-.668 2.425h2.201l-1.424 5.702z"/></symbol><symbol id="logo" viewBox="0 0 32 32"><path fill="#ff6e30" style="fill:var(--color12,#ff6e30)" d="M6.737 0h18.526A6.737 6.737 0 0 1 32 6.737v18.526A6.737 6.737 0 0 1 25.263 32H6.737A6.737 6.737 0 0 1 0 25.263V6.737A6.737 6.737 0 0 1 6.737 0z"/><path fill="#fff" style="fill:var(--color2,#fff)" d="M16.812 10.472c-.28 0-.552.035-.812.1a7.676 7.676 0 0 1 1.681-4.008 7.3 7.3 0 0 1 6.431 7.249v5.328a7.719 7.719 0 0 1-7.184-3.947h3.224v-1.381a3.341 3.341 0 0 0-3.341-3.341z"/><path fill="#fff" style="fill:var(--color2,#fff)" d="M7.795 14.274a8.12 8.12 0 0 1 8.642-8.104 8.508 8.508 0 0 0-2.188 6.213 2.514 2.514 0 0 0-.854 1.891v.56h1.36a8.543 8.543 0 0 0 9.281 5.508v3.452h-5.6v-3.36h-5.04v3.36h-5.6v-9.521z"/></symbol><symbol id="microsoft" viewBox="0 0 147 32"><path fill="#fff" style="fill:var(--color2,#fff)" opacity=".2" d="M147.012 14.381v-2.619h-3.211V7.691l-.108.034-3.075.953v3.085h-4.76v-1.718c0-.8.177-1.413.525-1.821.345-.404.84-.609 1.47-.609.453 0 .923.108 1.395.322l.119.053V5.232l-.056-.021c-.441-.161-1.041-.241-1.784-.241-.936 0-1.787.207-2.53.616s-1.326.994-1.736 1.738c-.408.743-.614 1.601-.614 2.55v1.889h-2.236v2.619h2.236v11.032h3.209V14.382h4.76v7.011c0 2.888 1.345 4.351 3.996 4.351a6.5 6.5 0 0 0 1.363-.153c.477-.104.801-.208.992-.319l.043-.025v-2.643l-.131.087a2.207 2.207 0 0 1-.645.285 2.41 2.41 0 0 1-.634.109c-.621 0-1.08-.17-1.366-.504-.289-.337-.434-.928-.434-1.754v-6.445h3.211zm-23.766 8.704c-1.164 0-2.083-.392-2.73-1.162-.651-.775-.981-1.879-.981-3.282 0-1.447.33-2.58.981-3.369.648-.783 1.557-1.181 2.704-1.181 1.113 0 1.999.38 2.633 1.129.638.753.962 1.877.962 3.342 0 1.482-.305 2.621-.904 3.383-.597.756-1.493 1.14-2.664 1.14zm.143-11.651c-2.222 0-3.988.659-5.246 1.96s-1.896 3.101-1.896 5.352c0 2.137.622 3.857 1.851 5.109s2.898 1.888 4.965 1.888c2.155 0 3.885-.669 5.143-1.988s1.895-3.101 1.895-5.299c0-2.171-.598-3.903-1.778-5.147-1.181-1.245-2.841-1.876-4.935-1.876zm-12.316 0c-1.512 0-2.762.392-3.717 1.164-.961.777-1.448 1.796-1.448 3.029 0 .641.105 1.21.312 1.693a3.4 3.4 0 0 0 .959 1.269c.425.355 1.081.727 1.95 1.106.731.305 1.276.562 1.622.765.339.199.579.399.715.594.132.191.199.451.199.774 0 .917-.678 1.363-2.073 1.363-.517 0-1.108-.109-1.755-.325a6.581 6.581 0 0 1-1.797-.923l-.133-.097v3.13l.049.023c.454.212 1.027.391 1.701.532s1.285.213 1.817.213c1.64 0 2.962-.394 3.925-1.171.97-.782 1.462-1.825 1.462-3.101 0-.92-.265-1.709-.786-2.346-.518-.631-1.417-1.211-2.672-1.723-.999-.406-1.639-.743-1.903-1.002-.254-.25-.384-.604-.384-1.051 0-.397.16-.715.488-.973.33-.259.789-.391 1.365-.391.535 0 1.082.085 1.626.253s1.022.392 1.42.667l.131.091v-2.969l-.05-.022c-.368-.16-.853-.296-1.442-.407a8.7 8.7 0 0 0-1.581-.165zM97.541 23.085c-1.165 0-2.083-.391-2.731-1.162-.651-.775-.981-1.879-.981-3.282 0-1.447.33-2.58.981-3.369.647-.783 1.557-1.181 2.704-1.181 1.112 0 1.998.38 2.633 1.129.637.753.961 1.877.961 3.342 0 1.482-.304 2.621-.904 3.383-.596.756-1.492 1.14-2.664 1.14zm.143-11.651c-2.223 0-3.989.659-5.246 1.96s-1.896 3.101-1.896 5.352c0 2.138.623 3.857 1.851 5.109s2.899 1.888 4.966 1.888c2.154 0 3.884-.669 5.142-1.988s1.896-3.101 1.896-5.299c0-2.171-.598-3.903-1.778-5.147s-2.841-1.876-4.934-1.876zM85.67 14.127v-2.364H82.5v13.651h3.17v-6.983c0-1.188.266-2.163.79-2.9.518-.728 1.208-1.097 2.05-1.097.286 0 .606.047.953.142.344.094.593.195.74.303l.133.098V11.74l-.051-.022c-.296-.127-.713-.191-1.242-.191-.796 0-1.509.259-2.12.77-.536.449-.923 1.064-1.22 1.831h-.034zm-8.847-2.693c-1.455 0-2.752.316-3.856.938a6.28 6.28 0 0 0-2.542 2.648c-.579 1.131-.873 2.451-.873 3.923 0 1.29.285 2.473.848 3.517a6.006 6.006 0 0 0 2.372 2.429c1.009.566 2.175.854 3.466.854 1.506 0 2.793-.305 3.824-.907l.042-.024V21.87l-.133.099a5.954 5.954 0 0 1-1.551.818c-.56.198-1.071.298-1.519.298-1.243 0-2.242-.395-2.967-1.172-.727-.778-1.095-1.871-1.095-3.247 0-1.384.384-2.505 1.141-3.332.754-.824 1.755-1.243 2.973-1.243 1.042 0 2.057.357 3.018 1.063l.133.098v-3.1l-.043-.025c-.361-.205-.854-.374-1.467-.502a8.648 8.648 0 0 0-1.771-.193zm-9.455.329h-3.17v13.651h3.17V11.763zm-1.553-5.816a1.9 1.9 0 0 0-1.351.536 1.784 1.784 0 0 0-.566 1.339c0 .523.188.965.56 1.313.369.347.826.523 1.356.523s.989-.176 1.363-.523c.376-.348.567-.79.567-1.313 0-.513-.186-.959-.552-1.325s-.829-.551-1.378-.551zm-7.909 4.808v14.658h3.235V6.365h-4.477l-5.692 14.148-5.523-14.148h-4.66v19.048h3.04v-14.66h.105l5.833 14.659h2.294l5.741-14.658h.105zM14.914 15.106H0V0h14.914v15.106zM31.38 15.106H16.467V0H31.38v15.106zM14.913 31.791H0V16.685h14.913v15.106zM31.38 31.791H16.467V16.685H31.38v15.106z"/></symbol><symbol id="notion" viewBox="0 0 32 32"><path fill="#fff" style="fill:var(--color2,#fff)" opacity=".78" d="m5.716 29.218-3.439-4.285A5.751 5.751 0 0 1 1 21.33V5.815c0-1.954 1.564-3.576 3.581-3.714l15.951-1.089a5.199 5.199 0 0 1 3.263.873L29.4 5.674a3.59 3.59 0 0 1 1.601 2.97v17.639c0 1.913-1.537 3.496-3.512 3.618l-17.704 1.09c-1.576.097-3.099-.567-4.067-1.773z"/><path style="fill:var(--color8,#000)" opacity=".78" d="M11.248 13.579v-.203c0-.515.412-.942.944-.977l3.871-.258 5.354 7.884v-6.919l-1.378-.184v-.097c0-.521.422-.951.96-.978l3.523-.18v.507a.494.494 0 0 1-.419.482l-.848.143v11.206l-1.064.366c-.889.306-1.878-.022-2.387-.789l-5.198-7.843v7.486l1.6.306-.022.148c-.07.465-.471.816-.957.838l-3.979.177c-.053-.5.322-.947.839-1.001l.523-.055v-9.981l-1.362-.077z"/><path style="fill:var(--color8,#000)" opacity=".78" d="M20.675 2.967 4.724 4.056c-.955.065-1.696.833-1.696 1.759V21.33c0 .87.299 1.715.851 2.402l3.439 4.285a2.776 2.776 0 0 0 2.337 1.018l17.704-1.09c.907-.056 1.614-.783 1.614-1.662V8.644c0-.544-.275-1.053-.735-1.365L22.633 3.49a3.117 3.117 0 0 0-1.958-.523zm-15.16 3.09c-.222-.164-.116-.506.162-.526l15.105-1.083c.481-.035.959.098 1.349.374l3.031 2.147c.115.082.061.258-.081.265l-15.996.87a2.079 2.079 0 0 1-1.347-.401L5.515 6.057zm2.819 4.774c0-.52.42-.949.957-.978l16.913-.921c.523-.028.964.374.964.88v15.273c0 .519-.418.948-.954.978l-16.806.956c-.582.033-1.073-.414-1.073-.978V10.83z"/></symbol><symbol id="phpstorm" viewBox="0 0 32 32"><path style="fill:var(--color8,#000)" d="m18.103 6.949-1.509-4.571L5.44.001 0 6.172l17.006 8.686 1.097-7.909z"/><path style="fill:var(--color8,#000)" d="m12.8 18.926-.32-9.509L0 6.171l3.063 18.331 9.737-.091v-5.486z"/><path style="fill:var(--color8,#000)" d="m10.103 18.743.594-7.543 9.051-9.28 8.091 1.463 4.16 10.377-4.343 4.297-7.086-1.143-4.389 4.617-6.08-2.789z"/><path style="fill:var(--color8,#000)" d="M19.749 1.92 6.766 13.44 9.28 28.251 20.069 32 32 24.869 19.749 1.92z"/><path style="fill:var(--color8,#000)" d="M6.126 6.126h19.749v19.749H6.126V6.126z"/><path fill="#fff" style="fill:var(--color2,#fff)" d="M8 22.171h7.406v1.234H8v-1.234zM7.909 8.686h3.337c1.966 0 3.154 1.143 3.154 2.834v.046c0 1.92-1.463 2.88-3.337 2.88H9.692v2.469H7.909V8.686zm3.245 4.114c.914 0 1.417-.549 1.417-1.234v-.046c0-.823-.549-1.234-1.463-1.234H9.737V12.8h1.417zM14.857 15.726l1.051-1.28c.731.594 1.509 1.006 2.469 1.006.731 0 1.189-.274 1.189-.777v-.046c0-.457-.274-.686-1.646-1.051-1.646-.411-2.743-.869-2.743-2.514v-.046c0-1.509 1.189-2.469 2.88-2.469 1.189 0 2.24.366 3.063 1.051l-.96 1.371c-.731-.503-1.463-.823-2.149-.823s-1.051.32-1.051.731v.046c0 .549.366.731 1.783 1.097 1.646.457 2.606 1.051 2.606 2.469v.046c0 1.646-1.234 2.56-3.017 2.56a5.636 5.636 0 0 1-3.474-1.371z"/></symbol><symbol id="procreate" viewBox="0 0 32 32"><path fill="#1e252b" style="fill:var(--color1,#1e252b)" opacity=".78" d="M2 12.133c0-3.547 0-5.321.69-6.675A6.33 6.33 0 0 1 5.458 2.69C6.813 2 8.586 2 12.133 2h7.733c3.547 0 5.32 0 6.675.69a6.33 6.33 0 0 1 2.768 2.768c.69 1.355.69 3.128.69 6.675v7.733c0 3.547 0 5.32-.69 6.675a6.33 6.33 0 0 1-2.768 2.768c-1.355.69-3.128.69-6.675.69h-7.733c-3.547 0-5.321 0-6.675-.69a6.33 6.33 0 0 1-2.768-2.768C2 25.186 2 23.413 2 19.866v-7.733z"/><path style="fill:var(--color8,#000)" opacity=".78" d="M9.867 16.4C5.967 19.27 5.2 23.467 5.2 26.967c.178-1.044.993-3.493 2.833-4.933 2.733-2.139 7.733-1.434 13.2-5.067s6-8.367 5.3-12c-.486 3.506-2.146 5.034-4.433 6.4-4.967 2.967-8.067 1.967-12.233 5.033z"/><path style="fill:var(--color8,#000)" opacity=".78" d="M9.867 16.4C5.967 19.27 5.2 23.467 5.2 26.967c.178-1.044.993-3.493 2.833-4.933 2.733-2.139 7.733-1.434 13.2-5.067s6-8.367 5.3-12c-.486 3.506-2.146 5.034-4.433 6.4-4.967 2.967-8.067 1.967-12.233 5.033z"/><path style="fill:var(--color8,#000)" opacity=".78" d="M5.247 25.532c.214-3.162 1.241-6.645 4.62-9.132 2.172-1.599 4.054-2.092 6.062-2.619 1.172-.307 2.386-.626 3.727-1.182-.489.467-2.812 1.557-4.564 2.285-1.748.726-3.59 1.492-5.125 2.515-3.078 2.052-4.33 5.622-4.72 8.132z"/><path style="fill:var(--color8,#000)" opacity=".78" d="M5.247 25.532c.214-3.162 1.241-6.645 4.62-9.132 2.172-1.599 4.054-2.092 6.062-2.619 1.172-.307 2.386-.626 3.727-1.182-.489.467-2.812 1.557-4.564 2.285-1.748.726-3.59 1.492-5.125 2.515-3.078 2.052-4.33 5.622-4.72 8.132z"/><path style="fill:var(--color8,#000)" opacity=".78" d="M24.218 14.371a6.95 6.95 0 0 1-1.284.996c-2.133 1.28-4.401 1.693-6.607 2.095-1.758.32-3.478.633-5.059 1.372-3.566 1.667-5.766 5.133-6.067 8.133s0-.001 0-.002c0-.229.003-.461.011-.695.018-.372.057-.784.12-1.223.471-2.467 1.751-5.723 4.636-7.646 1.221-.814 2.637-1.465 4.046-2.063 1.239-.407 2.355-.66 3.419-.901 1.674-.38 3.218-.729 4.902-1.602 3.534-1.831 4.46-5.595 4.211-7.808.528 2.805.315 6.255-2.327 9.346z"/><path style="fill:var(--color8,#000)" opacity=".78" d="M24.218 14.371a6.95 6.95 0 0 1-1.284.996c-2.133 1.28-4.401 1.693-6.607 2.094-1.758.32-3.478.633-5.059 1.372-2.051.958-3.65 2.512-4.696 4.23.923-1.297 2.328-2.745 4.063-3.297 1.692-.538 3.306-.594 4.983-.652.481-.017.966-.033 1.461-.062a19.468 19.468 0 0 0 4.156-2.086c1.231-.818 2.211-1.691 2.984-2.596z"/><path style="fill:var(--color8,#000)" opacity=".78" d="M24.218 14.371a6.95 6.95 0 0 1-1.284.996c-2.133 1.28-4.401 1.693-6.607 2.094-1.758.32-3.478.633-5.059 1.372-2.051.958-3.65 2.512-4.696 4.23.923-1.297 2.328-2.745 4.063-3.297 1.692-.538 3.306-.594 4.983-.652.481-.017.966-.033 1.461-.062a19.468 19.468 0 0 0 4.156-2.086c1.231-.818 2.211-1.691 2.984-2.596zM26.544 5.025l-.011-.058c-.486 3.506-2.146 5.034-4.433 6.4-.866.518-1.676.914-2.444 1.233-.489.467-2.812 1.557-4.564 2.285-.357.148-.717.298-1.078.451 1.239-.407 2.355-.66 3.419-.901 1.674-.38 3.218-.729 4.902-1.602 3.534-1.831 4.46-5.595 4.211-7.808z"/><path style="fill:var(--color8,#000)" opacity=".78" d="m26.544 5.025-.011-.058c-.486 3.506-2.146 5.034-4.433 6.4-.866.518-1.676.914-2.444 1.233-.489.467-2.812 1.557-4.564 2.285-.357.148-.717.298-1.078.451 1.239-.407 2.355-.66 3.419-.901 1.674-.38 3.218-.729 4.902-1.602 3.534-1.831 4.46-5.595 4.211-7.808z"/></symbol><symbol id="sketch" viewBox="0 0 36 32"><path fill="#fdb300" style="fill:var(--color13,#fdb300)" d="M17.965 0 7.839 1.051 0 11.384l17.965 20.541L35.93 11.384 28.091 1.051 17.965 0z"/><path fill="#eb6c00" style="fill:var(--color14,#eb6c00)" d="m0 11.384 17.965 20.541L7.277 11.384H0zM28.653 11.384 17.965 31.925 35.93 11.384h-7.277z"/><path fill="#fdad00" style="fill:var(--color15,#fdad00)" d="m7.277 11.384 10.688 20.541 10.688-20.541H7.276z"/><path fill="#fdd231" style="fill:var(--color16,#fdd231)" d="m7.839 1.051-.563 10.333L17.964 0 7.838 1.051zM28.653 11.384l-.562-10.333L17.965 0l10.688 11.384z"/><path fill="#fdad00" style="fill:var(--color15,#fdad00)" d="M28.653 11.384h7.277L28.091 1.051l.563 10.333zM0 11.384h7.277L7.84 1.051.001 11.384z"/><path fill="#feeeb7" style="fill:var(--color17,#feeeb7)" d="M17.965 0 7.277 11.384h21.377L17.966 0z"/></symbol><symbol id="slack" viewBox="0 0 33 32"><path fill="#e01e5a" style="fill:var(--color18,#e01e5a)" opacity=".78" d="M6.836 20.11c0 .439-.088.874-.259 1.28s-.422.774-.738 1.085c-.316.311-.692.557-1.105.724s-.856.254-1.304.253c-.447 0-.89-.086-1.303-.254s-.788-.414-1.104-.725c-.316-.31-.567-.679-.738-1.085s-.259-.84-.258-1.279a3.296 3.296 0 0 1 .996-2.365c.316-.311.692-.557 1.105-.725s.856-.254 1.303-.254h3.406v3.343h-.001zm1.702 0a3.296 3.296 0 0 1 .996-2.365c.316-.311.692-.557 1.105-.725a3.46 3.46 0 0 1 3.711.725c.316.31.567.679.738 1.085s.259.841.258 1.28v8.358a3.296 3.296 0 0 1-.996 2.365 3.402 3.402 0 0 1-1.105.725 3.46 3.46 0 0 1-3.711-.725c-.316-.31-.567-.679-.738-1.085s-.259-.841-.258-1.28V20.11z"/><path fill="#36c5f0" style="fill:var(--color19,#36c5f0)" opacity=".78" d="M11.942 6.687c-.447 0-.89-.086-1.304-.254s-.789-.414-1.105-.725c-.316-.311-.567-.679-.738-1.085s-.259-.841-.258-1.28A3.314 3.314 0 0 1 9.533.978a3.418 3.418 0 0 1 2.408-.979c.447 0 .89.086 1.303.254s.789.414 1.105.725c.316.31.567.679.738 1.085s.259.841.258 1.28v3.345l-3.404-.001zm0 1.696c.447 0 .89.086 1.303.254s.789.414 1.105.725c.316.31.567.679.738 1.085s.259.841.258 1.28a3.296 3.296 0 0 1-.996 2.365 3.418 3.418 0 0 1-2.408.979H3.404a3.426 3.426 0 0 1-2.408-.978c-.316-.31-.567-.679-.738-1.084a3.289 3.289 0 0 1-.001-2.559c.171-.406.422-.774.738-1.085s.692-.557 1.105-.725a3.46 3.46 0 0 1 1.303-.254l8.538-.001z"/><path fill="#2eb67d" style="fill:var(--color20,#2eb67d)" opacity=".78" d="M25.587 11.726c0-.439.087-.874.259-1.28a3.36 3.36 0 0 1 1.843-1.809 3.46 3.46 0 0 1 1.304-.253c.447 0 .89.086 1.303.254s.789.414 1.105.725c.316.31.567.679.738 1.085s.259.841.258 1.28a3.296 3.296 0 0 1-.996 2.365 3.418 3.418 0 0 1-2.408.979h-3.406v-3.343zm-1.702 0a3.296 3.296 0 0 1-.996 2.365 3.418 3.418 0 0 1-2.408.979c-.447.001-.89-.086-1.304-.253s-.789-.414-1.105-.724c-.316-.31-.567-.679-.738-1.085s-.259-.841-.259-1.28V3.345c0-.439.087-.874.259-1.28A3.36 3.36 0 0 1 19.177.256a3.46 3.46 0 0 1 1.304-.253c.447 0 .89.086 1.303.254s.789.414 1.105.725c.316.31.567.679.738 1.085s.259.841.258 1.28v8.383z"/><path fill="#ecb22e" style="fill:var(--color21,#ecb22e)" opacity=".78" d="M20.48 25.124c.447 0 .89.086 1.303.254s.789.414 1.105.725c.316.311.567.679.738 1.085s.259.841.258 1.28c.001.439-.087.874-.258 1.28s-.422.775-.738 1.085c-.316.311-.692.557-1.105.725a3.46 3.46 0 0 1-3.713-.725c-.316-.311-.567-.679-.738-1.085s-.259-.841-.258-1.28v-3.343h3.404zm0-1.672c-.447 0-.89-.086-1.303-.254s-.789-.414-1.105-.725c-.316-.311-.567-.679-.738-1.085s-.259-.841-.258-1.28a3.296 3.296 0 0 1 .996-2.365c.316-.311.692-.557 1.105-.725s.856-.254 1.303-.254h8.538c.447 0 .89.086 1.303.254s.789.414 1.105.725c.316.31.567.679.738 1.085s.259.841.258 1.28a3.296 3.296 0 0 1-.996 2.365 3.418 3.418 0 0 1-2.408.979H20.48z"/></symbol><symbol id="toolbox" viewBox="0 0 32 32"><path fill="#000001" style="fill:var(--color22,#000001)" opacity=".78" d="m16 32.076 14-8.011V8.057l-14 8.01v16.009z"/><path fill="#fff" style="fill:var(--color2,#fff)" opacity=".78" d="M19 24.556V27l6-3.556V21l-6 3.556z"/><path style="fill:var(--color8,#000)" opacity=".78" d="M16 .076 2 8.057v16.008l14 8.011V16.067l14-8.01L16 .076z"/></symbol><symbol id="twitter" viewBox="0 0 32 32"><path fill="#1e252b" style="fill:var(--color1,#1e252b)" d="M4.414 0h23.172A4.414 4.414 0 0 1 32 4.414v23.172A4.414 4.414 0 0 1 27.586 32H4.414A4.414 4.414 0 0 1 0 27.586V4.414A4.414 4.414 0 0 1 4.414 0z"/><path fill="#fff" style="fill:var(--color2,#fff)" opacity=".78" d="M22.317 12.687c.011.145.011.289.011.433 0 4.407-3.354 9.485-9.484 9.485a9.416 9.416 0 0 1-5.119-1.497c.268.031.526.041.805.041a6.68 6.68 0 0 0 4.139-1.424 3.339 3.339 0 0 1-3.118-2.312c.206.031.413.051.63.051.299 0 .599-.041.878-.113a3.331 3.331 0 0 1-2.673-3.271v-.041c.444.247.96.402 1.506.423a3.323 3.323 0 0 1-1.486-2.776c0-.619.165-1.187.454-1.682a9.49 9.49 0 0 0 6.873 3.488 3.811 3.811 0 0 1-.083-.764 3.345 3.345 0 0 1 .976-2.358 3.336 3.336 0 0 1 4.794.077 6.586 6.586 0 0 0 2.115-.805 3.326 3.326 0 0 1-1.466 1.837 6.719 6.719 0 0 0 1.919-.516 7.163 7.163 0 0 1-1.671 1.724z"/></symbol><symbol id="visual-studio-code" viewBox="0 0 33 32"><path fill="#0065a9" style="fill:var(--color23,#0065a9)" opacity=".78" d="M31.744 3.377 24.968.198a2.088 2.088 0 0 0-2.337.387L.448 20.293a1.312 1.312 0 0 0 .002 1.975l1.812 1.605a1.396 1.396 0 0 0 1.75.076L30.725 4.202c.896-.662 2.183-.04 2.183 1.056v-.077c0-.377-.109-.746-.315-1.066s-.5-.575-.849-.739z"/><path fill="#007acc" style="fill:var(--color24,#007acc)" opacity=".78" d="m31.744 28.503-6.776 3.179a2.096 2.096 0 0 1-2.337-.387L.448 11.587A1.312 1.312 0 0 1 .45 9.612l1.812-1.605a1.396 1.396 0 0 1 1.75-.076l26.713 19.747c.896.662 2.183.04 2.183-1.057v.077c0 .377-.109.746-.315 1.066s-.5.575-.849.739z"/><path fill="#1f9cf0" style="fill:var(--color25,#1f9cf0)" opacity=".78" d="M24.946 31.685c-.383.179-.813.238-1.232.169s-.805-.264-1.105-.557c.758.739 2.056.216 2.056-.83V1.416c0-1.045-1.297-1.569-2.056-.83.3-.293.687-.487 1.105-.557s.849-.01 1.232.169l6.775 3.175c.349.163.643.42.849.739s.315.689.315 1.066v21.526a2 2 0 0 1-1.165 1.805l-6.775 3.175z"/><path style="fill:var(--color8,#000)" opacity=".195" d="M23.321 31.744a2.078 2.078 0 0 0 1.631-.061l6.771-3.175c.349-.164.643-.42.849-.739s.315-.689.315-1.066V5.177c0-.377-.109-.747-.315-1.066s-.5-.575-.849-.739L24.952.197c-.383-.179-.813-.238-1.231-.169s-.805.264-1.105.557L9.654 12.108 4.008 7.932a1.395 1.395 0 0 0-1.748.076L.449 9.613a1.314 1.314 0 0 0-.002 1.975l4.897 4.353-4.897 4.353a1.313 1.313 0 0 0 .002 1.975l1.811 1.605a1.398 1.398 0 0 0 1.749.076l5.646-4.176 12.962 11.523c.2.196.44.348.705.449zm1.35-23.079-9.835 7.275 9.835 7.275V8.665z"/></symbol><symbol id="wordpress" viewBox="0 0 141 32"><path fill="#fff" style="fill:var(--color2,#fff)" opacity=".2" d="M81.83 12.506h-5.554v.585c1.737 0 2.017.369 2.017 2.556v3.942c0 2.186-.279 2.587-2.017 2.587-1.334-.185-2.233-.893-3.475-2.248l-1.427-1.54c1.923-.339 2.947-1.54 2.947-2.895 0-1.693-1.457-2.987-4.188-2.987h-5.461v.585c1.737 0 2.017.369 2.017 2.556v3.942c0 2.186-.279 2.587-2.017 2.587v.585h6.174v-.585c-1.737 0-2.016-.4-2.016-2.587v-1.108h.527l3.444 4.28h9.029c4.437 0 6.361-2.34 6.361-5.143s-1.924-5.112-6.361-5.112zm-13 5.02v-4.095h1.272c1.396 0 2.017.955 2.017 2.063 0 1.078-.621 2.032-2.017 2.032H68.83zm13.093 4.281h-.217c-1.116 0-1.271-.277-1.271-1.694V13.43h1.489c3.227 0 3.816 2.34 3.816 4.157 0 1.878-.589 4.219-3.816 4.219zM47.39 18.666l2.141-6.283c.621-1.817.341-2.34-1.644-2.34v-.616h5.833v.616c-1.955 0-2.42.462-3.196 2.71l-3.538 10.532h-.403l-3.165-9.639-3.227 9.639h-.403l-3.444-10.532c-.745-2.248-1.241-2.71-3.041-2.71v-.616h6.888v.616c-1.831 0-2.328.431-1.675 2.34l2.079 6.282 3.134-9.239h.59l3.072 9.239zm10.549 4.495c-3.413 0-6.205-2.494-6.205-5.543 0-3.018 2.793-5.512 6.205-5.512s6.205 2.495 6.205 5.512c0 3.049-2.792 5.543-6.205 5.543zm0-10.1c-2.854 0-3.847 2.556-3.847 4.557 0 2.033.993 4.558 3.847 4.558 2.886 0 3.879-2.525 3.879-4.558 0-2.002-.993-4.557-3.879-4.557zM95.854 22.145v.616h-7.105v-.616c2.079 0 2.452-.523 2.452-3.603v-4.927c0-3.08-.372-3.572-2.452-3.572v-.616h6.423c3.196 0 4.964 1.632 4.964 3.819 0 2.125-1.769 3.788-4.964 3.788h-1.769v1.508c0 3.08.372 3.604 2.452 3.604zm-.683-11.61h-1.769v5.359h1.769c1.737 0 2.545-1.201 2.545-2.648 0-1.478-.807-2.71-2.545-2.71zm26.28 9.331-.155.554c-.279 1.016-.621 1.386-2.824 1.386h-.435c-1.612 0-1.892-.37-1.892-2.556v-1.417c2.42 0 2.607.215 2.607 1.817h.59v-4.589h-.59c0 1.601-.186 1.817-2.607 1.817v-3.449h1.706c2.204 0 2.545.37 2.824 1.386l.156.585h.496l-.217-2.895h-9.123v.585c1.737 0 2.017.369 2.017 2.556v3.942c0 2-.238 2.504-1.607 2.576-1.302-.197-2.196-.902-3.419-2.237l-1.428-1.54c1.924-.339 2.948-1.54 2.948-2.895 0-1.693-1.459-2.987-4.189-2.987h-5.46v.585c1.737 0 2.017.369 2.017 2.556v3.942c0 2.186-.279 2.587-2.017 2.587v.585h6.175v-.585c-1.737 0-2.017-.4-2.017-2.587V18.48h.527l3.444 4.28h12.752l.187-2.894h-.466zm-16.444-2.34v-4.095h1.272c1.396 0 2.017.955 2.017 2.063 0 1.078-.621 2.032-2.017 2.032h-1.272zm22.742 5.635c-1.241 0-2.327-.647-2.793-1.047-.155.154-.434.616-.496 1.047h-.59v-4.249h.621c.248 2.032 1.675 3.233 3.506 3.233.993 0 1.799-.554 1.799-1.478 0-.8-.713-1.417-1.985-2.001l-1.769-.831c-1.241-.586-2.172-1.602-2.172-2.957 0-1.478 1.396-2.741 3.32-2.741 1.025 0 1.892.37 2.42.801.155-.123.311-.462.404-.832h.59v3.635h-.652c-.218-1.448-1.024-2.649-2.668-2.649-.869 0-1.676.493-1.676 1.263 0 .8.652 1.231 2.142 1.909l1.705.831c1.49.708 2.079 1.848 2.079 2.772 0 1.94-1.707 3.295-3.785 3.295zm9.556 0c-1.241 0-2.327-.647-2.793-1.047-.155.154-.434.616-.496 1.047h-.589v-4.249h.62c.248 2.032 1.676 3.233 3.506 3.233.993 0 1.8-.554 1.8-1.478 0-.8-.713-1.417-1.986-2.001l-1.769-.831c-1.241-.586-2.172-1.602-2.172-2.957 0-1.478 1.396-2.741 3.32-2.741 1.024 0 1.892.37 2.42.801.155-.123.31-.462.403-.832h.59v3.635h-.652c-.217-1.448-1.024-2.649-2.668-2.649-.868 0-1.676.493-1.676 1.263 0 .8.652 1.231 2.141 1.909l1.706.831c1.489.708 2.079 1.848 2.079 2.772 0 1.94-1.706 3.295-3.785 3.295zM2.275 15.886c0 5.395 3.159 10.056 7.739 12.266L3.464 10.34a13.501 13.501 0 0 0-1.189 5.547zm23.001-.688c0-1.684-.61-2.851-1.133-3.759-.696-1.122-1.348-2.073-1.348-3.196 0-1.253.957-2.419 2.306-2.419.061 0 .118.008.178.011a13.74 13.74 0 0 0-9.273-3.577A13.743 13.743 0 0 0 4.533 8.401c.322.009.626.016.884.016 1.436 0 3.66-.173 3.66-.173.74-.043.827 1.036.088 1.123 0 0-.744.087-1.572.13l5 14.762 3.005-8.945-2.139-5.817c-.739-.043-1.44-.13-1.44-.13-.74-.043-.653-1.166.086-1.122 0 0 2.268.173 3.617.173 1.436 0 3.66-.173 3.66-.173.74-.043.828 1.035.088 1.122 0 0-.745.087-1.572.13l4.962 14.65 1.37-4.543c.594-1.885 1.046-3.239 1.046-4.405zm-9.029 1.88-4.12 11.882a13.836 13.836 0 0 0 8.439-.218 1.198 1.198 0 0 1-.098-.188l-4.221-11.477zm11.808-7.73c.059.434.093.9.093 1.401 0 1.383-.26 2.937-1.044 4.881L22.91 27.666c4.082-2.363 6.828-6.752 6.828-11.78 0-2.37-.61-4.598-1.682-6.539zM16.006 0C7.18 0 0 7.126 0 15.886c0 8.761 7.181 15.887 16.006 15.887s16.007-7.126 16.007-15.887C32.013 7.126 24.831 0 16.006 0zm0 31.045c-8.421 0-15.273-6.8-15.273-15.159S7.584.728 16.006.728c8.421 0 15.272 6.8 15.272 15.158s-6.851 15.159-15.272 15.159z"/></symbol><symbol id="zeplin" viewBox="0 0 32 32"><path fill="#fdbd39" style="fill:var(--color26,#fdbd39)" opacity=".78" d="m6.316 20.168-1.465.526-.079 4.283 5.071-1.821c-1.739-.574-3.009-1.585-3.527-2.988z"/><path fill="#f69833" style="fill:var(--color27,#f69833)" opacity=".78" d="M7.082 15.638 2 17.463l2.851 3.231 1.465-.526c-.516-1.4-.198-2.982.767-4.53z"/><path fill="#fecf33" style="fill:var(--color28,#fecf33)" opacity=".78" d="M15.635 9.457c-6.472 2.324-10.644 7.119-9.319 10.711l23.437-8.416c-1.325-3.592-7.646-4.619-14.117-2.295z"/><path fill="#ee6723" style="fill:var(--color29,#ee6723)" opacity=".78" d="M20.433 22.463c6.472-2.324 10.652-7.098 9.319-10.711L6.315 20.168c1.333 3.613 7.646 4.619 14.117 2.295z"/><path fill="#f69833" style="fill:var(--color27,#f69833)" opacity=".78" d="M29.752 11.753 6.315 20.169c.459 1.244 2.209 1.857 4.664 1.857 2.394 0 5.458-.582 8.653-1.729 6.472-2.324 11.025-6.087 10.119-8.543z"/><path fill="#fdbd39" style="fill:var(--color26,#fdbd39)" opacity=".78" d="M25.088 9.896c-2.394 0-5.458.582-8.653 1.729-6.472 2.324-11.025 6.086-10.119 8.543l23.437-8.416c-.459-1.244-2.209-1.857-4.665-1.857z"/><path fill="#ee6723" style="fill:var(--color29,#ee6723)" opacity=".78" d="M23.794 25.204c-.69 0-1.707-.612-3.024-1.82-1.558-1.428-3.342-3.521-5.025-5.891s-3.065-4.741-3.893-6.673c-.902-2.106-1.031-3.402-.382-3.849a.88.88 0 0 1 .509-.148c.527 0 1.555.386 3.455 2.225l.042.04-.006.057a27.72 27.72 0 0 0-.036.396l-.021.26-.186-.185C13.18 7.589 12.278 7.37 11.986 7.37a.342.342 0 0 0-.197.05c-.281.194-.299 1.146.575 3.187.813 1.898 2.175 4.233 3.836 6.572s3.418 4.401 4.948 5.804c1.65 1.513 2.393 1.676 2.636 1.676a.353.353 0 0 0 .203-.053c.297-.205.297-1.224-.678-3.422l-.045-.101.098-.053.282-.154.117-.066.054.122c.691 1.557 1.338 3.537.49 4.122a.88.88 0 0 1-.512.149zm-.001-.24z"/><path fill="#ee6723" style="fill:var(--color29,#ee6723)" opacity=".78" d="m20.59 22.398-.01.12c-.164 1.99-.594 4.383-1.718 4.479a.796.796 0 0 1-.069.003c-.763 0-1.485-1.075-2.146-3.194-.625-2.005-1.11-4.697-1.366-7.581s-.252-5.617.011-7.7c.286-2.269.831-3.454 1.62-3.522A.825.825 0 0 1 16.983 5c.554 0 1.388.616 2.242 3.486l-.558.106c-.285-.959-.596-1.739-.904-2.275-.285-.496-.563-.769-.781-.769l-.021.001c-.342.029-.84.844-1.117 3.044-.258 2.045-.261 4.739-.009 7.584s.73 5.498 1.344 7.468c.275.882.576 1.609.872 2.102.273.455.536.705.743.705l.021-.001c.327-.028.943-.876 1.203-3.86l.573-.193z"/></symbol></defs></svg>