<svg width="58" height="58" viewBox="0 0 58 58" fill="none" xmlns="http://www.w3.org/2000/svg">
<rect width="58" height="58" rx="8" fill="#1E252B"/>
<path d="M28.9985 22.0654C27.159 22.0654 25.3948 22.7962 24.094 24.0969C22.7933 25.3977 22.0625 27.1619 22.0625 29.0014C22.0625 30.841 22.7933 32.6052 24.094 33.9059C25.3948 35.2067 27.159 35.9374 28.9985 35.9374C30.838 35.9374 32.6022 35.2067 33.903 33.9059C35.2037 32.6052 35.9345 30.841 35.9345 29.0014C35.9345 27.1619 35.2037 25.3977 33.903 24.0969C32.6022 22.7962 30.838 22.0654 28.9985 22.0654ZM28.9985 33.5059C27.8034 33.5059 26.6573 33.0312 25.8123 32.1862C24.9672 31.3411 24.4925 30.195 24.4925 28.9999C24.4925 27.8049 24.9672 26.6587 25.8123 25.8137C26.6573 24.9687 27.8034 24.4939 28.9985 24.4939C30.1936 24.4939 31.3397 24.9687 32.1847 25.8137C33.0298 26.6587 33.5045 27.8049 33.5045 28.9999C33.5045 30.195 33.0298 31.3411 32.1847 32.1862C31.3397 33.0312 30.1936 33.5059 28.9985 33.5059Z" fill="white" fill-opacity="0.78"/>
<path d="M36.209 23.4275C37.102 23.4275 37.826 22.7035 37.826 21.8105C37.826 20.9174 37.102 20.1935 36.209 20.1935C35.316 20.1935 34.592 20.9174 34.592 21.8105C34.592 22.7035 35.316 23.4275 36.209 23.4275Z" fill="white" fill-opacity="0.78"/>
<path d="M41.7995 20.1664C41.4523 19.2697 40.9216 18.4554 40.2415 17.7755C39.5614 17.0957 38.7469 16.5654 37.85 16.2184C36.8005 15.8245 35.6918 15.6115 34.571 15.5884C33.1265 15.5254 32.669 15.5074 29.006 15.5074C25.343 15.5074 24.8735 15.5074 23.441 15.5884C22.3211 15.6103 21.2131 15.8233 20.165 16.2184C19.2679 16.5649 18.4532 17.0952 17.773 17.775C17.0929 18.4549 16.5623 19.2695 16.2155 20.1664C15.8215 21.2159 15.6089 22.3247 15.587 23.4454C15.5225 24.8884 15.503 25.3459 15.503 29.0104C15.503 32.6734 15.503 33.1399 15.587 34.5754C15.6095 35.6974 15.821 36.8044 16.2155 37.8559C16.5633 38.7526 17.0943 39.5668 17.7747 40.2466C18.455 40.9264 19.2696 41.4568 20.1665 41.8039C21.2127 42.2137 22.3211 42.442 23.444 42.4789C24.8885 42.5419 25.346 42.5614 29.009 42.5614C32.672 42.5614 33.1415 42.5614 34.574 42.4789C35.6947 42.4562 36.8034 42.2437 37.853 41.8505C38.7496 41.5027 39.5639 40.9719 40.244 40.2919C40.924 39.6119 41.4548 38.7976 41.8025 37.9009C42.197 36.851 42.4085 35.7439 42.431 34.622C42.4955 33.1789 42.515 32.7214 42.515 29.0569C42.515 25.3924 42.515 24.9274 42.431 23.4919C42.4135 22.3554 42.1999 21.2303 41.7995 20.1664ZM39.9725 34.4644C39.9628 35.3289 39.805 36.1853 39.506 36.9964C39.2807 37.5798 38.9359 38.1094 38.4936 38.5515C38.0513 38.9935 37.5214 39.338 36.938 39.5629C36.1358 39.8606 35.2885 40.0184 34.433 40.0294C33.008 40.0954 32.606 40.1119 28.952 40.1119C25.295 40.1119 24.9215 40.1119 23.4695 40.0294C22.6144 40.019 21.7675 39.8612 20.966 39.5629C20.3805 39.3394 19.8485 38.9955 19.4043 38.5534C18.9602 38.1113 18.6138 37.5809 18.3875 36.9964C18.0927 36.194 17.935 35.3477 17.921 34.4929C17.8565 33.0679 17.8415 32.6659 17.8415 29.0119C17.8415 25.3564 17.8415 24.9829 17.921 23.5294C17.9307 22.6655 18.0885 21.8096 18.3875 20.9989C18.845 19.8154 19.7825 18.8839 20.966 18.4309C21.7679 18.1342 22.6145 17.9764 23.4695 17.9644C24.896 17.8999 25.2965 17.8819 28.952 17.8819C32.6075 17.8819 32.9825 17.8819 34.433 17.9644C35.2886 17.9747 36.136 18.1326 36.938 18.4309C37.5214 18.6564 38.0512 19.0012 38.4935 19.4435C38.9357 19.8857 39.2806 20.4156 39.506 20.9989C39.8008 21.8014 39.9585 22.6477 39.9725 23.5024C40.037 24.9289 40.0535 25.3294 40.0535 28.9849C40.0535 32.6389 40.0535 33.0319 39.989 34.466H39.9725V34.4644Z" fill="white" fill-opacity="0.78"/>
</svg>
