<svg width="58" height="58" viewBox="0 0 58 58" fill="none" xmlns="http://www.w3.org/2000/svg">
<rect width="58" height="58" rx="8" fill="#1E252B"/>
<path d="M40.4495 22.9956C40.469 23.2581 40.469 23.5191 40.469 23.7801C40.469 31.7676 34.3895 40.9716 23.279 40.9716C19.856 40.9716 16.676 39.9801 14 38.2581C14.486 38.3136 14.954 38.3331 15.4595 38.3331C18.179 38.3396 20.8215 37.4303 22.961 35.7516C21.7001 35.7287 20.4779 35.3128 19.4649 34.5617C18.4519 33.8106 17.6987 32.7619 17.3105 31.5621C17.684 31.6176 18.059 31.6551 18.452 31.6551C18.9935 31.6551 19.538 31.5801 20.0435 31.4496C18.6751 31.1733 17.4447 30.4316 16.5614 29.3506C15.6781 28.2696 15.1965 26.916 15.1985 25.5201V25.4451C16.004 25.8936 16.9385 26.1741 17.9285 26.2116C17.0991 25.6604 16.4191 24.9126 15.949 24.0348C15.4789 23.1569 15.2335 22.1763 15.2345 21.1806C15.2345 20.0586 15.533 19.0296 16.0565 18.1326C17.5747 20.0001 19.4683 21.5279 21.6145 22.6171C23.7608 23.7062 26.1118 24.3324 28.5155 24.4551C28.4225 24.0051 28.3655 23.5386 28.3655 23.0706C28.3651 22.277 28.5211 21.4912 28.8246 20.7579C29.1281 20.0247 29.5732 19.3585 30.1343 18.7973C30.6954 18.2362 31.3616 17.7912 32.0949 17.4877C32.8281 17.1842 33.6139 17.0282 34.4075 17.0286C36.1475 17.0286 37.718 17.7576 38.822 18.9366C40.1747 18.675 41.4718 18.1812 42.656 17.4771C42.2051 18.8733 41.2606 20.0572 39.9995 20.8071C41.1992 20.6702 42.3717 20.3547 43.478 19.8711C42.6517 21.0757 41.6278 22.1321 40.4495 22.9956Z" fill="white" fill-opacity="0.78"/>
</svg>
