<svg width="101" height="97" viewBox="0 0 101 97" fill="none" xmlns="http://www.w3.org/2000/svg">
<path d="M43.5006 6.57674L48.9333 14.5524C46.4903 15.9971 43.5068 18.489 39.9828 22.0283C36.671 25.4648 33.5373 29.4044 30.5816 33.8469C27.6259 38.2894 25.4848 42.9269 24.1581 47.7592C25.3695 47.8273 26.3962 47.9195 27.2381 48.0357C28.2921 48.0491 29.2914 48.22 30.2359 48.5483C33.6994 49.7521 36.2014 51.9451 37.7421 55.1273C39.4949 58.2067 39.66 61.793 38.2373 65.8862C36.6505 70.4516 34.0265 73.6861 30.3653 75.5896C26.7588 77.3357 22.909 77.4974 18.8158 76.0748C12.8336 73.9955 9.03417 70.2047 7.41769 64.7023C5.80121 59.2 6.08732 53.3002 8.27602 47.0031C9.80811 42.5951 12.2401 37.8823 15.5721 32.8648C19.1162 27.7445 23.2901 22.8431 28.0936 18.1606C32.9519 13.3207 38.0875 9.45938 43.5006 6.57674ZM86.9509 21.6788L92.3836 29.6544C89.9406 31.0991 86.9571 33.5911 83.4331 37.1303C80.1213 40.5669 76.9876 44.5064 74.0319 48.9489C71.0762 53.3915 68.9351 58.0289 67.6084 62.8612C68.8198 62.9294 69.8465 63.0215 70.6884 63.1377C71.7424 63.1511 72.7416 63.322 73.6862 63.6503C77.1496 64.8541 79.6517 67.0471 81.1924 70.2293C82.9452 73.3088 83.1103 76.8951 81.6876 80.9882C80.1008 85.5537 77.4768 88.7881 73.8156 90.6916C70.2091 92.4377 66.3593 92.5994 62.2661 91.1768C56.2839 89.0975 52.4845 85.3067 50.868 79.8044C49.2515 74.302 49.5376 68.4023 51.7263 62.1051C53.2584 57.6971 55.6904 52.9843 59.0224 47.9668C62.5665 42.8465 66.7404 37.9452 71.5439 33.2626C76.4022 28.4227 81.5378 24.5614 86.9509 21.6788Z" fill="url(#paint0_linear_68_8)"/>
<defs>
<linearGradient id="paint0_linear_68_8" x1="66.9416" y1="2.11655" x2="-251.985" y2="320.507" gradientUnits="userSpaceOnUse">
<stop stop-color="#FCFCFC" stop-opacity="0"/>
<stop offset="1" stop-color="white" stop-opacity="0.5"/>
</linearGradient>
</defs>
</svg>
